<?xml version="1.0" standalone="no"?>
<!DOCTYPE svg PUBLIC "-//W3C//DTD SVG 20010904//EN"
 "http://www.w3.org/TR/2001/REC-SVG-20010904/DTD/svg10.dtd">
<svg version="1.0" xmlns="http://www.w3.org/2000/svg"
 width="260.000000pt" height="260.000000pt" viewBox="0 0 260.000000 260.000000"
 preserveAspectRatio="xMidYMid meet">
<metadata>
Created by potrace 1.14, written by Peter Selinger 2001-2017
</metadata>
<g transform="translate(0.000000,260.000000) scale(0.100000,-0.100000)"
fill="#000000" stroke="none">
<path d="M0 2187 c0 -228 3 -522 7 -655 l6 -242 149 0 148 0 -2 -162 -3 -163
-150 0 -150 0 -3 -482 -2 -483 1300 0 1300 0 0 1300 0 1300 -1300 0 -1300 0 0
-413z m1968 -569 l-3 -323 -162 -3 -163 -2 0 163 0 164 -495 0 -495 0 0 -334
0 -333 165 0 165 0 0 -155 0 -155 -163 0 -163 0 -2 152 c-1 110 -5 154 -14
160 -7 4 -80 8 -163 7 l-150 -1 -2 194 c-1 106 0 327 4 491 l6 297 819 0 818
0 -2 -322z m-1750 -15 c-32 -2 -86 -2 -120 0 -35 2 -9 3 57 3 66 0 94 -1 63
-3z m1417 -478 l0 -160 -160 0 -160 0 -3 163 -2 162 162 -2 163 -3 0 -160z
m665 0 l0 -165 -165 0 -165 0 0 -160 0 -160 -165 0 -166 0 3 158 3 157 163 3
162 2 0 165 0 165 165 0 165 0 0 -165z"/>
</g>
</svg>
